<svg id="Capa_1" enable-background="new 0 0 512 512" height="512" viewBox="0 0 512 512" width="512" xmlns="http://www.w3.org/2000/svg" xmlns:xlink="http://www.w3.org/1999/xlink"><linearGradient id="SVGID_1_" gradientUnits="userSpaceOnUse" x1="74.98" x2="437.019" y1="437.019" y2="74.98"><stop offset="0" stop-color="#ff4747"/><stop offset="1" stop-color="#fff200"/></linearGradient><radialGradient id="SVGID_2_" cx="257.013" cy="280.338" gradientUnits="userSpaceOnUse" r="256"><stop offset="0" stop-color="#ff4747"/><stop offset=".106" stop-color="#ff4f49" stop-opacity=".889"/><stop offset=".2641" stop-color="#ff634f" stop-opacity=".723"/><stop offset=".4545" stop-color="#ff8458" stop-opacity=".523"/><stop offset=".6704" stop-color="#ffb265" stop-opacity=".297"/><stop offset=".9046" stop-color="#ffed74" stop-opacity=".052"/><stop offset=".9537" stop-color="#fffa78" stop-opacity="0"/></radialGradient><linearGradient id="lg1"><stop offset="0" stop-color="#ffb11d"/><stop offset=".4622" stop-color="#ffd449"/><stop offset="1" stop-color="#fffa78"/></linearGradient><linearGradient id="SVGID_3_" gradientUnits="userSpaceOnUse" x1="-73.714" x2="561.886" xlink:href="#lg1" y1="731.717" y2="96.117"/><linearGradient id="lg2"><stop offset="0" stop-color="#ffb11d" stop-opacity=".6"/><stop offset=".0999" stop-color="#ffc116" stop-opacity=".54"/><stop offset=".2709" stop-color="#ffd70c" stop-opacity=".438"/><stop offset=".46" stop-color="#ffe605" stop-opacity=".324"/><stop offset=".6794" stop-color="#ffef01" stop-opacity=".192"/><stop offset="1" stop-color="#fff200" stop-opacity="0"/></linearGradient><linearGradient id="SVGID_4_" gradientUnits="userSpaceOnUse" x1="256" x2="256" xlink:href="#lg2" y1="389.156" y2="453.933"/><linearGradient id="SVGID_5_" gradientUnits="userSpaceOnUse" x1="-126.799" x2="496.606" xlink:href="#lg1" y1="754.91" y2="131.504"/><linearGradient id="SVGID_6_" gradientUnits="userSpaceOnUse" x1="256" x2="256" xlink:href="#lg2" y1="359.085" y2="422.878"/><linearGradient id="SVGID_7_" gradientUnits="userSpaceOnUse" x1="184.379" x2="447.164" xlink:href="#lg1" y1="152.707" y2="415.493"/><radialGradient id="SVGID_8_" cx="289.476" cy="257.892" gradientUnits="userSpaceOnUse" r="162.53"><stop offset="0" stop-color="#ff8c00"/><stop offset=".0205" stop-color="#ff9400" stop-opacity=".98"/><stop offset=".1109" stop-color="#ffb100" stop-opacity=".889"/><stop offset=".2121" stop-color="#ffc900" stop-opacity=".788"/><stop offset=".3262" stop-color="#ffdb00" stop-opacity=".674"/><stop offset=".461" stop-color="#ffe800" stop-opacity=".539"/><stop offset=".6361" stop-color="#fff000" stop-opacity=".364"/><stop offset="1" stop-color="#fff200" stop-opacity="0"/></radialGradient><linearGradient id="SVGID_9_" gradientUnits="userSpaceOnUse" x1="-79.487" x2="344.298" xlink:href="#lg1" y1="635.517" y2="211.732"/><linearGradient id="SVGID_10_" gradientUnits="userSpaceOnUse" x1="-351.63" x2="402.32" xlink:href="#lg1" y1="800.827" y2="46.877"/><linearGradient id="SVGID_11_" gradientUnits="userSpaceOnUse" x1="50.752" x2="471.08" xlink:href="#lg1" y1="521.032" y2="100.704"/><radialGradient id="SVGID_12_" cx="336.03" cy="304.748" gradientUnits="userSpaceOnUse" r="274.821"><stop offset="0" stop-color="#ffb11d"/><stop offset=".0781" stop-color="#ffc232" stop-opacity=".922"/><stop offset=".1984" stop-color="#ffd64b" stop-opacity=".802"/><stop offset=".3323" stop-color="#ffe65f" stop-opacity=".668"/><stop offset=".4851" stop-color="#fff16d" stop-opacity=".515"/><stop offset=".6731" stop-color="#fff876" stop-opacity=".327"/><stop offset="1" stop-color="#fffa78" stop-opacity="0"/></radialGradient><linearGradient id="SVGID_13_" gradientUnits="userSpaceOnUse" x1="-71.461" x2="393.656" xlink:href="#lg1" y1="452.867" y2="-12.25"/><g><circle cx="256" cy="256" fill="url(#SVGID_1_)" r="256"/><circle cx="256" cy="256" fill="url(#SVGID_2_)" r="256"/><path d="m109.363 384.5c.309 10 .655 20 1.037 30 .322 8.276 7.323 15.399 15.6 15.851 86.667 4.648 173.333 4.648 260 0 8.277-.452 15.277-7.577 15.6-15.851.382-10 .727-20 1.037-30-97.758 4.283-195.516 4.283-293.274 0z" fill="url(#SVGID_3_)"/><path d="m109.363 384.5c.309 10 .655 20 1.037 30 .322 8.276 7.323 15.399 15.6 15.851 86.667 4.648 173.333 4.648 260 0 8.277-.452 15.277-7.577 15.6-15.851.382-10 .727-20 1.037-30-97.758 4.283-195.516 4.283-293.274 0z" fill="url(#SVGID_4_)"/><path d="m108.543 354.5c.237 10 .511 20 .82 30 .261 8.276 7.266 15.331 15.61 15.704 87.351 3.844 174.702 3.844 262.053 0 8.344-.374 15.349-7.43 15.61-15.704.309-10 .583-20 .82-30-98.304 3.283-196.608 3.283-294.913 0z" fill="url(#SVGID_5_)"/><path d="m108.543 354.5c.237 10 .511 20 .82 30 .261 8.276 7.266 15.331 15.61 15.704 87.351 3.844 174.702 3.844 262.053 0 8.344-.374 15.349-7.43 15.61-15.704.309-10 .583-20 .82-30-98.304 3.283-196.608 3.283-294.913 0z" fill="url(#SVGID_6_)"/><path d="m404.365 209.5c.541 48.333.239 96.667-.908 145-.2 8.275-7.199 15.26-15.597 15.557-49.025 1.696-98.049 2.446-147.074 2.25 53.945-54.436 109.605-110.329 163.579-162.807z" fill="url(#SVGID_7_)"/><path d="m404.365 209.5c.541 48.333.239 96.667-.908 145-.2 8.275-7.199 15.26-15.597 15.557-49.025 1.696-98.049 2.446-147.074 2.25 53.945-54.436 109.605-110.329 163.579-162.807z" fill="url(#SVGID_8_)"/><path d="m391.092 241.257c-39.162 38.323-78.913 78.105-117.992 117.537-5.577-45.001-11.358-90.043-17.1-135.082 45.002 5.747 90.043 11.711 135.092 17.545z" fill="url(#SVGID_9_)"/><path d="m108.543 157.5c-1.558 65.667-1.558 131.333 0 197 .2 8.275 7.2 15.26 15.597 15.557 38.882 1.345 77.763 2.096 116.645 2.25 12.595.052 24.013-5.139 32.314-13.513 8.297-8.378 13.49-19.941 13.533-32.655.063-18.772.1-37.544.112-56.316.006-8.482 6.888-15.359 15.379-15.357 18.792.003 37.583.008 56.375.014 12.729.003 24.275-5.088 32.592-13.224 8.317-8.142 13.414-19.343 13.273-31.757-.194-17.333-.497-34.667-.908-52-49.625-21.641-98.922-43.461-147.455-63.961-48.533 20.499-97.83 42.32-147.457 63.962z" fill="url(#SVGID_10_)"/><path d="m373.862 244.393c-12.78-.951-75.579-13.543-75.573-13.545-20.61-3.672-37.786 14.396-35.204 35.174.013.001 7.308 62.78 8.203 75.543.626 8.681-2.039 16.854-6.425 23.825 2.988-1.882 5.755-4.091 8.237-6.596 8.297-8.378 13.49-19.941 13.533-32.655.063-18.772.1-37.544.112-56.316.006-8.482 6.888-15.359 15.379-15.357 18.792.003 37.583.008 56.375.014 12.475.001 23.806-4.898 32.082-12.749-5.189 2.053-10.829 3.112-16.719 2.662z" fill="url(#SVGID_11_)"/><path d="m108.543 157.5c-1.558 65.667-1.558 131.333 0 197 .2 8.275 7.2 15.26 15.597 15.557 38.882 1.345 77.763 2.096 116.645 2.25 12.595.052 24.013-5.139 32.314-13.513 8.297-8.378 13.49-19.941 13.533-32.655.063-18.772.1-37.544.112-56.316.006-8.482 6.888-15.359 15.379-15.357 18.792.003 37.583.008 56.375.014 12.729.003 24.275-5.088 32.592-13.224 8.317-8.142 13.414-19.343 13.273-31.757-.194-17.333-.497-34.667-.908-52-49.625-21.641-98.922-43.461-147.455-63.961-48.533 20.499-97.83 42.32-147.457 63.962z" fill="url(#SVGID_12_)"/><path d="m386 81.649c-86.667-4.649-173.333-4.649-260 0-8.277.449-15.277 7.576-15.6 15.851-.763 20-1.382 40-1.857 60 98.304-3.283 196.609-3.283 294.913 0-.475-20-1.093-40-1.857-60-.322-8.275-7.322-15.401-15.599-15.851z" fill="url(#SVGID_13_)"/></g></svg>